<?xml version="1.0" encoding="utf-8" standalone="no"?>
<!DOCTYPE svg PUBLIC "-//W3C//DTD SVG 1.1//EN"
  "http://www.w3.org/Graphics/SVG/1.1/DTD/svg11.dtd">
<svg xmlns:xlink="http://www.w3.org/1999/xlink" width="576pt" height="432pt" viewBox="0 0 576 432" xmlns="http://www.w3.org/2000/svg" version="1.1">
 <metadata>
  <rdf:RDF xmlns:dc="http://purl.org/dc/elements/1.1/" xmlns:cc="http://creativecommons.org/ns#" xmlns:rdf="http://www.w3.org/1999/02/22-rdf-syntax-ns#">
   <cc:Work>
    <dc:type rdf:resource="http://purl.org/dc/dcmitype/StillImage"/>
    <dc:date>2025-04-10T15:26:31.567550</dc:date>
    <dc:format>image/svg+xml</dc:format>
    <dc:creator>
     <cc:Agent>
      <dc:title>Matplotlib v3.10.1, https://matplotlib.org/</dc:title>
     </cc:Agent>
    </dc:creator>
   </cc:Work>
  </rdf:RDF>
 </metadata>
 <defs>
  <style type="text/css">*{stroke-linejoin: round; stroke-linecap: butt}</style>
 </defs>
 <g id="figure_1">
  <g id="patch_1">
   <path d="M 0 432 
L 576 432 
L 576 0 
L 0 0 
z
" style="fill: #ffffff"/>
  </g>
  <g id="axes_1">
   <g id="patch_2">
    <path d="M 172.8 384.48 
L 518.4 384.48 
L 518.4 51.84 
L 172.8 51.84 
z
" style="fill: #ffffff"/>
   </g>
   <g id="patch_3">
    <path d="M 172.8 369.36 
L 501.942857 369.36 
L 501.942857 358.749474 
L 172.8 358.749474 
z
" clip-path="url(#p715f99fac0)" style="fill: #03405e"/>
   </g>
   <g id="patch_4">
    <path d="M 172.8 356.096842 
L 376.555102 356.096842 
L 376.555102 345.486316 
L 172.8 345.486316 
z
" clip-path="url(#p715f99fac0)" style="fill: #03405e"/>
   </g>
   <g id="patch_5">
    <path d="M 172.8 342.833684 
L 313.861224 342.833684 
L 313.861224 332.223158 
L 172.8 332.223158 
z
" clip-path="url(#p715f99fac0)" style="fill: #03405e"/>
   </g>
   <g id="patch_6">
    <path d="M 172.8 329.570526 
L 298.187755 329.570526 
L 298.187755 318.96 
L 172.8 318.96 
z
" clip-path="url(#p715f99fac0)" style="fill: #03405e"/>
   </g>
   <g id="patch_7">
    <path d="M 172.8 316.307368 
L 235.493878 316.307368 
L 235.493878 305.696842 
L 172.8 305.696842 
z
" clip-path="url(#p715f99fac0)" style="fill: #03405e"/>
   </g>
   <g id="patch_8">
    <path d="M 172.8 303.044211 
L 235.493878 303.044211 
L 235.493878 292.433684 
L 172.8 292.433684 
z
" clip-path="url(#p715f99fac0)" style="fill: #03405e"/>
   </g>
   <g id="patch_9">
    <path d="M 172.8 289.781053 
L 219.820408 289.781053 
L 219.820408 279.170526 
L 172.8 279.170526 
z
" clip-path="url(#p715f99fac0)" style="fill: #03405e"/>
   </g>
   <g id="patch_10">
    <path d="M 172.8 276.517895 
L 219.820408 276.517895 
L 219.820408 265.907368 
L 172.8 265.907368 
z
" clip-path="url(#p715f99fac0)" style="fill: #03405e"/>
   </g>
   <g id="patch_11">
    <path d="M 172.8 263.254737 
L 219.820408 263.254737 
L 219.820408 252.644211 
L 172.8 252.644211 
z
" clip-path="url(#p715f99fac0)" style="fill: #03405e"/>
   </g>
   <g id="patch_12">
    <path d="M 172.8 249.991579 
L 219.820408 249.991579 
L 219.820408 239.381053 
L 172.8 239.381053 
z
" clip-path="url(#p715f99fac0)" style="fill: #03405e"/>
   </g>
   <g id="patch_13">
    <path d="M 172.8 236.728421 
L 204.146939 236.728421 
L 204.146939 226.117895 
L 172.8 226.117895 
z
" clip-path="url(#p715f99fac0)" style="fill: #03405e"/>
   </g>
   <g id="patch_14">
    <path d="M 172.8 223.465263 
L 204.146939 223.465263 
L 204.146939 212.854737 
L 172.8 212.854737 
z
" clip-path="url(#p715f99fac0)" style="fill: #03405e"/>
   </g>
   <g id="patch_15">
    <path d="M 172.8 210.202105 
L 204.146939 210.202105 
L 204.146939 199.591579 
L 172.8 199.591579 
z
" clip-path="url(#p715f99fac0)" style="fill: #03405e"/>
   </g>
   <g id="patch_16">
    <path d="M 172.8 196.938947 
L 204.146939 196.938947 
L 204.146939 186.328421 
L 172.8 186.328421 
z
" clip-path="url(#p715f99fac0)" style="fill: #03405e"/>
   </g>
   <g id="patch_17">
    <path d="M 172.8 183.675789 
L 188.473469 183.675789 
L 188.473469 173.065263 
L 172.8 173.065263 
z
" clip-path="url(#p715f99fac0)" style="fill: #03405e"/>
   </g>
   <g id="patch_18">
    <path d="M 172.8 170.412632 
L 188.473469 170.412632 
L 188.473469 159.802105 
L 172.8 159.802105 
z
" clip-path="url(#p715f99fac0)" style="fill: #03405e"/>
   </g>
   <g id="patch_19">
    <path d="M 172.8 157.149474 
L 188.473469 157.149474 
L 188.473469 146.538947 
L 172.8 146.538947 
z
" clip-path="url(#p715f99fac0)" style="fill: #03405e"/>
   </g>
   <g id="patch_20">
    <path d="M 172.8 143.886316 
L 188.473469 143.886316 
L 188.473469 133.275789 
L 172.8 133.275789 
z
" clip-path="url(#p715f99fac0)" style="fill: #03405e"/>
   </g>
   <g id="patch_21">
    <path d="M 172.8 130.623158 
L 188.473469 130.623158 
L 188.473469 120.012632 
L 172.8 120.012632 
z
" clip-path="url(#p715f99fac0)" style="fill: #03405e"/>
   </g>
   <g id="patch_22">
    <path d="M 172.8 117.36 
L 188.473469 117.36 
L 188.473469 106.749474 
L 172.8 106.749474 
z
" clip-path="url(#p715f99fac0)" style="fill: #03405e"/>
   </g>
   <g id="patch_23">
    <path d="M 172.8 104.096842 
L 188.473469 104.096842 
L 188.473469 93.486316 
L 172.8 93.486316 
z
" clip-path="url(#p715f99fac0)" style="fill: #03405e"/>
   </g>
   <g id="patch_24">
    <path d="M 172.8 90.833684 
L 188.473469 90.833684 
L 188.473469 80.223158 
L 172.8 80.223158 
z
" clip-path="url(#p715f99fac0)" style="fill: #03405e"/>
   </g>
   <g id="patch_25">
    <path d="M 172.8 77.570526 
L 188.473469 77.570526 
L 188.473469 66.96 
L 172.8 66.96 
z
" clip-path="url(#p715f99fac0)" style="fill: #03405e"/>
   </g>
   <g id="matplotlib.axis_1"/>
   <g id="matplotlib.axis_2">
    <g id="ytick_1">
     <g id="line2d_1">
      <defs>
       <path id="m3723a2e2d6" d="M 0 0 
L -3.5 0 
" style="stroke: #000000; stroke-width: 0.8"/>
      </defs>
      <g>
       <use xlink:href="#m3723a2e2d6" x="172.8" y="364.054737" style="stroke: #000000; stroke-width: 0.8"/>
      </g>
     </g>
     <g id="text_1">
      <!-- Provo -->
      <g transform="translate(137.903125 367.853956) scale(0.1 -0.1)">
       <defs>
        <path id="DejaVuSans-50" d="M 1259 4147 
L 1259 2394 
L 2053 2394 
Q 2494 2394 2734 2622 
Q 2975 2850 2975 3272 
Q 2975 3691 2734 3919 
Q 2494 4147 2053 4147 
L 1259 4147 
z
M 628 4666 
L 2053 4666 
Q 2838 4666 3239 4311 
Q 3641 3956 3641 3272 
Q 3641 2581 3239 2228 
Q 2838 1875 2053 1875 
L 1259 1875 
L 1259 0 
L 628 0 
L 628 4666 
z
" transform="scale(0.015625)"/>
        <path id="DejaVuSans-72" d="M 2631 2963 
Q 2534 3019 2420 3045 
Q 2306 3072 2169 3072 
Q 1681 3072 1420 2755 
Q 1159 2438 1159 1844 
L 1159 0 
L 581 0 
L 581 3500 
L 1159 3500 
L 1159 2956 
Q 1341 3275 1631 3429 
Q 1922 3584 2338 3584 
Q 2397 3584 2469 3576 
Q 2541 3569 2628 3553 
L 2631 2963 
z
" transform="scale(0.015625)"/>
        <path id="DejaVuSans-6f" d="M 1959 3097 
Q 1497 3097 1228 2736 
Q 959 2375 959 1747 
Q 959 1119 1226 758 
Q 1494 397 1959 397 
Q 2419 397 2687 759 
Q 2956 1122 2956 1747 
Q 2956 2369 2687 2733 
Q 2419 3097 1959 3097 
z
M 1959 3584 
Q 2709 3584 3137 3096 
Q 3566 2609 3566 1747 
Q 3566 888 3137 398 
Q 2709 -91 1959 -91 
Q 1206 -91 779 398 
Q 353 888 353 1747 
Q 353 2609 779 3096 
Q 1206 3584 1959 3584 
z
" transform="scale(0.015625)"/>
        <path id="DejaVuSans-76" d="M 191 3500 
L 800 3500 
L 1894 563 
L 2988 3500 
L 3597 3500 
L 2284 0 
L 1503 0 
L 191 3500 
z
" transform="scale(0.015625)"/>
       </defs>
       <use xlink:href="#DejaVuSans-50"/>
       <use xlink:href="#DejaVuSans-72" transform="translate(58.552734 0)"/>
       <use xlink:href="#DejaVuSans-6f" transform="translate(97.416016 0)"/>
       <use xlink:href="#DejaVuSans-76" transform="translate(158.597656 0)"/>
       <use xlink:href="#DejaVuSans-6f" transform="translate(217.777344 0)"/>
      </g>
     </g>
    </g>
    <g id="ytick_2">
     <g id="line2d_2">
      <g>
       <use xlink:href="#m3723a2e2d6" x="172.8" y="350.791579" style="stroke: #000000; stroke-width: 0.8"/>
      </g>
     </g>
     <g id="text_2">
      <!-- Salt Lake City -->
      <g transform="translate(97.3875 354.590798) scale(0.1 -0.1)">
       <defs>
        <path id="DejaVuSans-53" d="M 3425 4513 
L 3425 3897 
Q 3066 4069 2747 4153 
Q 2428 4238 2131 4238 
Q 1616 4238 1336 4038 
Q 1056 3838 1056 3469 
Q 1056 3159 1242 3001 
Q 1428 2844 1947 2747 
L 2328 2669 
Q 3034 2534 3370 2195 
Q 3706 1856 3706 1288 
Q 3706 609 3251 259 
Q 2797 -91 1919 -91 
Q 1588 -91 1214 -16 
Q 841 59 441 206 
L 441 856 
Q 825 641 1194 531 
Q 1563 422 1919 422 
Q 2459 422 2753 634 
Q 3047 847 3047 1241 
Q 3047 1584 2836 1778 
Q 2625 1972 2144 2069 
L 1759 2144 
Q 1053 2284 737 2584 
Q 422 2884 422 3419 
Q 422 4038 858 4394 
Q 1294 4750 2059 4750 
Q 2388 4750 2728 4690 
Q 3069 4631 3425 4513 
z
" transform="scale(0.015625)"/>
        <path id="DejaVuSans-61" d="M 2194 1759 
Q 1497 1759 1228 1600 
Q 959 1441 959 1056 
Q 959 750 1161 570 
Q 1363 391 1709 391 
Q 2188 391 2477 730 
Q 2766 1069 2766 1631 
L 2766 1759 
L 2194 1759 
z
M 3341 1997 
L 3341 0 
L 2766 0 
L 2766 531 
Q 2569 213 2275 61 
Q 1981 -91 1556 -91 
Q 1019 -91 701 211 
Q 384 513 384 1019 
Q 384 1609 779 1909 
Q 1175 2209 1959 2209 
L 2766 2209 
L 2766 2266 
Q 2766 2663 2505 2880 
Q 2244 3097 1772 3097 
Q 1472 3097 1187 3025 
Q 903 2953 641 2809 
L 641 3341 
Q 956 3463 1253 3523 
Q 1550 3584 1831 3584 
Q 2591 3584 2966 3190 
Q 3341 2797 3341 1997 
z
" transform="scale(0.015625)"/>
        <path id="DejaVuSans-6c" d="M 603 4863 
L 1178 4863 
L 1178 0 
L 603 0 
L 603 4863 
z
" transform="scale(0.015625)"/>
        <path id="DejaVuSans-74" d="M 1172 4494 
L 1172 3500 
L 2356 3500 
L 2356 3053 
L 1172 3053 
L 1172 1153 
Q 1172 725 1289 603 
Q 1406 481 1766 481 
L 2356 481 
L 2356 0 
L 1766 0 
Q 1100 0 847 248 
Q 594 497 594 1153 
L 594 3053 
L 172 3053 
L 172 3500 
L 594 3500 
L 594 4494 
L 1172 4494 
z
" transform="scale(0.015625)"/>
        <path id="DejaVuSans-20" transform="scale(0.015625)"/>
        <path id="DejaVuSans-4c" d="M 628 4666 
L 1259 4666 
L 1259 531 
L 3531 531 
L 3531 0 
L 628 0 
L 628 4666 
z
" transform="scale(0.015625)"/>
        <path id="DejaVuSans-6b" d="M 581 4863 
L 1159 4863 
L 1159 1991 
L 2875 3500 
L 3609 3500 
L 1753 1863 
L 3688 0 
L 2938 0 
L 1159 1709 
L 1159 0 
L 581 0 
L 581 4863 
z
" transform="scale(0.015625)"/>
        <path id="DejaVuSans-65" d="M 3597 1894 
L 3597 1613 
L 953 1613 
Q 991 1019 1311 708 
Q 1631 397 2203 397 
Q 2534 397 2845 478 
Q 3156 559 3463 722 
L 3463 178 
Q 3153 47 2828 -22 
Q 2503 -91 2169 -91 
Q 1331 -91 842 396 
Q 353 884 353 1716 
Q 353 2575 817 3079 
Q 1281 3584 2069 3584 
Q 2775 3584 3186 3129 
Q 3597 2675 3597 1894 
z
M 3022 2063 
Q 3016 2534 2758 2815 
Q 2500 3097 2075 3097 
Q 1594 3097 1305 2825 
Q 1016 2553 972 2059 
L 3022 2063 
z
" transform="scale(0.015625)"/>
        <path id="DejaVuSans-43" d="M 4122 4306 
L 4122 3641 
Q 3803 3938 3442 4084 
Q 3081 4231 2675 4231 
Q 1875 4231 1450 3742 
Q 1025 3253 1025 2328 
Q 1025 1406 1450 917 
Q 1875 428 2675 428 
Q 3081 428 3442 575 
Q 3803 722 4122 1019 
L 4122 359 
Q 3791 134 3420 21 
Q 3050 -91 2638 -91 
Q 1578 -91 968 557 
Q 359 1206 359 2328 
Q 359 3453 968 4101 
Q 1578 4750 2638 4750 
Q 3056 4750 3426 4639 
Q 3797 4528 4122 4306 
z
" transform="scale(0.015625)"/>
        <path id="DejaVuSans-69" d="M 603 3500 
L 1178 3500 
L 1178 0 
L 603 0 
L 603 3500 
z
M 603 4863 
L 1178 4863 
L 1178 4134 
L 603 4134 
L 603 4863 
z
" transform="scale(0.015625)"/>
        <path id="DejaVuSans-79" d="M 2059 -325 
Q 1816 -950 1584 -1140 
Q 1353 -1331 966 -1331 
L 506 -1331 
L 506 -850 
L 844 -850 
Q 1081 -850 1212 -737 
Q 1344 -625 1503 -206 
L 1606 56 
L 191 3500 
L 800 3500 
L 1894 763 
L 2988 3500 
L 3597 3500 
L 2059 -325 
z
" transform="scale(0.015625)"/>
       </defs>
       <use xlink:href="#DejaVuSans-53"/>
       <use xlink:href="#DejaVuSans-61" transform="translate(63.476562 0)"/>
       <use xlink:href="#DejaVuSans-6c" transform="translate(124.755859 0)"/>
       <use xlink:href="#DejaVuSans-74" transform="translate(152.539062 0)"/>
       <use xlink:href="#DejaVuSans-20" transform="translate(191.748047 0)"/>
       <use xlink:href="#DejaVuSans-4c" transform="translate(223.535156 0)"/>
       <use xlink:href="#DejaVuSans-61" transform="translate(279.248047 0)"/>
       <use xlink:href="#DejaVuSans-6b" transform="translate(340.527344 0)"/>
       <use xlink:href="#DejaVuSans-65" transform="translate(394.8125 0)"/>
       <use xlink:href="#DejaVuSans-20" transform="translate(456.335938 0)"/>
       <use xlink:href="#DejaVuSans-43" transform="translate(488.123047 0)"/>
       <use xlink:href="#DejaVuSans-69" transform="translate(557.947266 0)"/>
       <use xlink:href="#DejaVuSans-74" transform="translate(585.730469 0)"/>
       <use xlink:href="#DejaVuSans-79" transform="translate(624.939453 0)"/>
      </g>
     </g>
    </g>
    <g id="ytick_3">
     <g id="line2d_3">
      <g>
       <use xlink:href="#m3723a2e2d6" x="172.8" y="337.528421" style="stroke: #000000; stroke-width: 0.8"/>
      </g>
     </g>
     <g id="text_3">
      <!-- West Valley City -->
      <g transform="translate(85.439062 341.32764) scale(0.1 -0.1)">
       <defs>
        <path id="DejaVuSans-57" d="M 213 4666 
L 850 4666 
L 1831 722 
L 2809 4666 
L 3519 4666 
L 4500 722 
L 5478 4666 
L 6119 4666 
L 4947 0 
L 4153 0 
L 3169 4050 
L 2175 0 
L 1381 0 
L 213 4666 
z
" transform="scale(0.015625)"/>
        <path id="DejaVuSans-73" d="M 2834 3397 
L 2834 2853 
Q 2591 2978 2328 3040 
Q 2066 3103 1784 3103 
Q 1356 3103 1142 2972 
Q 928 2841 928 2578 
Q 928 2378 1081 2264 
Q 1234 2150 1697 2047 
L 1894 2003 
Q 2506 1872 2764 1633 
Q 3022 1394 3022 966 
Q 3022 478 2636 193 
Q 2250 -91 1575 -91 
Q 1294 -91 989 -36 
Q 684 19 347 128 
L 347 722 
Q 666 556 975 473 
Q 1284 391 1588 391 
Q 1994 391 2212 530 
Q 2431 669 2431 922 
Q 2431 1156 2273 1281 
Q 2116 1406 1581 1522 
L 1381 1569 
Q 847 1681 609 1914 
Q 372 2147 372 2553 
Q 372 3047 722 3315 
Q 1072 3584 1716 3584 
Q 2034 3584 2315 3537 
Q 2597 3491 2834 3397 
z
" transform="scale(0.015625)"/>
        <path id="DejaVuSans-56" d="M 1831 0 
L 50 4666 
L 709 4666 
L 2188 738 
L 3669 4666 
L 4325 4666 
L 2547 0 
L 1831 0 
z
" transform="scale(0.015625)"/>
       </defs>
       <use xlink:href="#DejaVuSans-57"/>
       <use xlink:href="#DejaVuSans-65" transform="translate(93.001953 0)"/>
       <use xlink:href="#DejaVuSans-73" transform="translate(154.525391 0)"/>
       <use xlink:href="#DejaVuSans-74" transform="translate(206.625 0)"/>
       <use xlink:href="#DejaVuSans-20" transform="translate(245.833984 0)"/>
       <use xlink:href="#DejaVuSans-56" transform="translate(277.621094 0)"/>
       <use xlink:href="#DejaVuSans-61" transform="translate(338.279297 0)"/>
       <use xlink:href="#DejaVuSans-6c" transform="translate(399.558594 0)"/>
       <use xlink:href="#DejaVuSans-6c" transform="translate(427.341797 0)"/>
       <use xlink:href="#DejaVuSans-65" transform="translate(455.125 0)"/>
       <use xlink:href="#DejaVuSans-79" transform="translate(516.648438 0)"/>
       <use xlink:href="#DejaVuSans-20" transform="translate(575.828125 0)"/>
       <use xlink:href="#DejaVuSans-43" transform="translate(607.615234 0)"/>
       <use xlink:href="#DejaVuSans-69" transform="translate(677.439453 0)"/>
       <use xlink:href="#DejaVuSans-74" transform="translate(705.222656 0)"/>
       <use xlink:href="#DejaVuSans-79" transform="translate(744.431641 0)"/>
      </g>
     </g>
    </g>
    <g id="ytick_4">
     <g id="line2d_4">
      <g>
       <use xlink:href="#m3723a2e2d6" x="172.8" y="324.265263" style="stroke: #000000; stroke-width: 0.8"/>
      </g>
     </g>
     <g id="text_4">
      <!-- Orem -->
      <g transform="translate(138.148437 328.064482) scale(0.1 -0.1)">
       <defs>
        <path id="DejaVuSans-4f" d="M 2522 4238 
Q 1834 4238 1429 3725 
Q 1025 3213 1025 2328 
Q 1025 1447 1429 934 
Q 1834 422 2522 422 
Q 3209 422 3611 934 
Q 4013 1447 4013 2328 
Q 4013 3213 3611 3725 
Q 3209 4238 2522 4238 
z
M 2522 4750 
Q 3503 4750 4090 4092 
Q 4678 3434 4678 2328 
Q 4678 1225 4090 567 
Q 3503 -91 2522 -91 
Q 1538 -91 948 565 
Q 359 1222 359 2328 
Q 359 3434 948 4092 
Q 1538 4750 2522 4750 
z
" transform="scale(0.015625)"/>
        <path id="DejaVuSans-6d" d="M 3328 2828 
Q 3544 3216 3844 3400 
Q 4144 3584 4550 3584 
Q 5097 3584 5394 3201 
Q 5691 2819 5691 2113 
L 5691 0 
L 5113 0 
L 5113 2094 
Q 5113 2597 4934 2840 
Q 4756 3084 4391 3084 
Q 3944 3084 3684 2787 
Q 3425 2491 3425 1978 
L 3425 0 
L 2847 0 
L 2847 2094 
Q 2847 2600 2669 2842 
Q 2491 3084 2119 3084 
Q 1678 3084 1418 2786 
Q 1159 2488 1159 1978 
L 1159 0 
L 581 0 
L 581 3500 
L 1159 3500 
L 1159 2956 
Q 1356 3278 1631 3431 
Q 1906 3584 2284 3584 
Q 2666 3584 2933 3390 
Q 3200 3197 3328 2828 
z
" transform="scale(0.015625)"/>
       </defs>
       <use xlink:href="#DejaVuSans-4f"/>
       <use xlink:href="#DejaVuSans-72" transform="translate(78.710938 0)"/>
       <use xlink:href="#DejaVuSans-65" transform="translate(117.574219 0)"/>
       <use xlink:href="#DejaVuSans-6d" transform="translate(179.097656 0)"/>
      </g>
     </g>
    </g>
    <g id="ytick_5">
     <g id="line2d_5">
      <g>
       <use xlink:href="#m3723a2e2d6" x="172.8" y="311.002105" style="stroke: #000000; stroke-width: 0.8"/>
      </g>
     </g>
     <g id="text_5">
      <!-- Taylorsville -->
      <g transform="translate(110.671875 314.801324) scale(0.1 -0.1)">
       <defs>
        <path id="DejaVuSans-54" d="M -19 4666 
L 3928 4666 
L 3928 4134 
L 2272 4134 
L 2272 0 
L 1638 0 
L 1638 4134 
L -19 4134 
L -19 4666 
z
" transform="scale(0.015625)"/>
       </defs>
       <use xlink:href="#DejaVuSans-54"/>
       <use xlink:href="#DejaVuSans-61" transform="translate(44.583984 0)"/>
       <use xlink:href="#DejaVuSans-79" transform="translate(105.863281 0)"/>
       <use xlink:href="#DejaVuSans-6c" transform="translate(165.042969 0)"/>
       <use xlink:href="#DejaVuSans-6f" transform="translate(192.826172 0)"/>
       <use xlink:href="#DejaVuSans-72" transform="translate(254.007812 0)"/>
       <use xlink:href="#DejaVuSans-73" transform="translate(295.121094 0)"/>
       <use xlink:href="#DejaVuSans-76" transform="translate(347.220703 0)"/>
       <use xlink:href="#DejaVuSans-69" transform="translate(406.400391 0)"/>
       <use xlink:href="#DejaVuSans-6c" transform="translate(434.183594 0)"/>
       <use xlink:href="#DejaVuSans-6c" transform="translate(461.966797 0)"/>
       <use xlink:href="#DejaVuSans-65" transform="translate(489.75 0)"/>
      </g>
     </g>
    </g>
    <g id="ytick_6">
     <g id="line2d_6">
      <g>
       <use xlink:href="#m3723a2e2d6" x="172.8" y="297.738947" style="stroke: #000000; stroke-width: 0.8"/>
      </g>
     </g>
     <g id="text_6">
      <!-- Millcreek -->
      <g transform="translate(121.35625 301.538166) scale(0.1 -0.1)">
       <defs>
        <path id="DejaVuSans-4d" d="M 628 4666 
L 1569 4666 
L 2759 1491 
L 3956 4666 
L 4897 4666 
L 4897 0 
L 4281 0 
L 4281 4097 
L 3078 897 
L 2444 897 
L 1241 4097 
L 1241 0 
L 628 0 
L 628 4666 
z
" transform="scale(0.015625)"/>
        <path id="DejaVuSans-63" d="M 3122 3366 
L 3122 2828 
Q 2878 2963 2633 3030 
Q 2388 3097 2138 3097 
Q 1578 3097 1268 2742 
Q 959 2388 959 1747 
Q 959 1106 1268 751 
Q 1578 397 2138 397 
Q 2388 397 2633 464 
Q 2878 531 3122 666 
L 3122 134 
Q 2881 22 2623 -34 
Q 2366 -91 2075 -91 
Q 1284 -91 818 406 
Q 353 903 353 1747 
Q 353 2603 823 3093 
Q 1294 3584 2113 3584 
Q 2378 3584 2631 3529 
Q 2884 3475 3122 3366 
z
" transform="scale(0.015625)"/>
       </defs>
       <use xlink:href="#DejaVuSans-4d"/>
       <use xlink:href="#DejaVuSans-69" transform="translate(86.279297 0)"/>
       <use xlink:href="#DejaVuSans-6c" transform="translate(114.0625 0)"/>
       <use xlink:href="#DejaVuSans-6c" transform="translate(141.845703 0)"/>
       <use xlink:href="#DejaVuSans-63" transform="translate(169.628906 0)"/>
       <use xlink:href="#DejaVuSans-72" transform="translate(224.609375 0)"/>
       <use xlink:href="#DejaVuSans-65" transform="translate(263.472656 0)"/>
       <use xlink:href="#DejaVuSans-65" transform="translate(324.996094 0)"/>
       <use xlink:href="#DejaVuSans-6b" transform="translate(386.519531 0)"/>
      </g>
     </g>
    </g>
    <g id="ytick_7">
     <g id="line2d_7">
      <g>
       <use xlink:href="#m3723a2e2d6" x="172.8" y="284.475789" style="stroke: #000000; stroke-width: 0.8"/>
      </g>
     </g>
     <g id="text_7">
      <!-- Sandy -->
      <g transform="translate(134.71875 288.275008) scale(0.1 -0.1)">
       <defs>
        <path id="DejaVuSans-6e" d="M 3513 2113 
L 3513 0 
L 2938 0 
L 2938 2094 
Q 2938 2591 2744 2837 
Q 2550 3084 2163 3084 
Q 1697 3084 1428 2787 
Q 1159 2491 1159 1978 
L 1159 0 
L 581 0 
L 581 3500 
L 1159 3500 
L 1159 2956 
Q 1366 3272 1645 3428 
Q 1925 3584 2291 3584 
Q 2894 3584 3203 3211 
Q 3513 2838 3513 2113 
z
" transform="scale(0.015625)"/>
        <path id="DejaVuSans-64" d="M 2906 2969 
L 2906 4863 
L 3481 4863 
L 3481 0 
L 2906 0 
L 2906 525 
Q 2725 213 2448 61 
Q 2172 -91 1784 -91 
Q 1150 -91 751 415 
Q 353 922 353 1747 
Q 353 2572 751 3078 
Q 1150 3584 1784 3584 
Q 2172 3584 2448 3432 
Q 2725 3281 2906 2969 
z
M 947 1747 
Q 947 1113 1208 752 
Q 1469 391 1925 391 
Q 2381 391 2643 752 
Q 2906 1113 2906 1747 
Q 2906 2381 2643 2742 
Q 2381 3103 1925 3103 
Q 1469 3103 1208 2742 
Q 947 2381 947 1747 
z
" transform="scale(0.015625)"/>
       </defs>
       <use xlink:href="#DejaVuSans-53"/>
       <use xlink:href="#DejaVuSans-61" transform="translate(63.476562 0)"/>
       <use xlink:href="#DejaVuSans-6e" transform="translate(124.755859 0)"/>
       <use xlink:href="#DejaVuSans-64" transform="translate(188.134766 0)"/>
       <use xlink:href="#DejaVuSans-79" transform="translate(251.611328 0)"/>
      </g>
     </g>
    </g>
    <g id="ytick_8">
     <g id="line2d_8">
      <g>
       <use xlink:href="#m3723a2e2d6" x="172.8" y="271.212632" style="stroke: #000000; stroke-width: 0.8"/>
      </g>
     </g>
     <g id="text_8">
      <!-- West Jordan -->
      <g transform="translate(106.220312 275.01185) scale(0.1 -0.1)">
       <defs>
        <path id="DejaVuSans-4a" d="M 628 4666 
L 1259 4666 
L 1259 325 
Q 1259 -519 939 -900 
Q 619 -1281 -91 -1281 
L -331 -1281 
L -331 -750 
L -134 -750 
Q 284 -750 456 -515 
Q 628 -281 628 325 
L 628 4666 
z
" transform="scale(0.015625)"/>
       </defs>
       <use xlink:href="#DejaVuSans-57"/>
       <use xlink:href="#DejaVuSans-65" transform="translate(93.001953 0)"/>
       <use xlink:href="#DejaVuSans-73" transform="translate(154.525391 0)"/>
       <use xlink:href="#DejaVuSans-74" transform="translate(206.625 0)"/>
       <use xlink:href="#DejaVuSans-20" transform="translate(245.833984 0)"/>
       <use xlink:href="#DejaVuSans-4a" transform="translate(277.621094 0)"/>
       <use xlink:href="#DejaVuSans-6f" transform="translate(307.113281 0)"/>
       <use xlink:href="#DejaVuSans-72" transform="translate(368.294922 0)"/>
       <use xlink:href="#DejaVuSans-64" transform="translate(407.658203 0)"/>
       <use xlink:href="#DejaVuSans-61" transform="translate(471.134766 0)"/>
       <use xlink:href="#DejaVuSans-6e" transform="translate(532.414062 0)"/>
      </g>
     </g>
    </g>
    <g id="ytick_9">
     <g id="line2d_9">
      <g>
       <use xlink:href="#m3723a2e2d6" x="172.8" y="257.949474" style="stroke: #000000; stroke-width: 0.8"/>
      </g>
     </g>
     <g id="text_9">
      <!-- Springville -->
      <g transform="translate(113.121875 261.748692) scale(0.1 -0.1)">
       <defs>
        <path id="DejaVuSans-70" d="M 1159 525 
L 1159 -1331 
L 581 -1331 
L 581 3500 
L 1159 3500 
L 1159 2969 
Q 1341 3281 1617 3432 
Q 1894 3584 2278 3584 
Q 2916 3584 3314 3078 
Q 3713 2572 3713 1747 
Q 3713 922 3314 415 
Q 2916 -91 2278 -91 
Q 1894 -91 1617 61 
Q 1341 213 1159 525 
z
M 3116 1747 
Q 3116 2381 2855 2742 
Q 2594 3103 2138 3103 
Q 1681 3103 1420 2742 
Q 1159 2381 1159 1747 
Q 1159 1113 1420 752 
Q 1681 391 2138 391 
Q 2594 391 2855 752 
Q 3116 1113 3116 1747 
z
" transform="scale(0.015625)"/>
        <path id="DejaVuSans-67" d="M 2906 1791 
Q 2906 2416 2648 2759 
Q 2391 3103 1925 3103 
Q 1463 3103 1205 2759 
Q 947 2416 947 1791 
Q 947 1169 1205 825 
Q 1463 481 1925 481 
Q 2391 481 2648 825 
Q 2906 1169 2906 1791 
z
M 3481 434 
Q 3481 -459 3084 -895 
Q 2688 -1331 1869 -1331 
Q 1566 -1331 1297 -1286 
Q 1028 -1241 775 -1147 
L 775 -588 
Q 1028 -725 1275 -790 
Q 1522 -856 1778 -856 
Q 2344 -856 2625 -561 
Q 2906 -266 2906 331 
L 2906 616 
Q 2728 306 2450 153 
Q 2172 0 1784 0 
Q 1141 0 747 490 
Q 353 981 353 1791 
Q 353 2603 747 3093 
Q 1141 3584 1784 3584 
Q 2172 3584 2450 3431 
Q 2728 3278 2906 2969 
L 2906 3500 
L 3481 3500 
L 3481 434 
z
" transform="scale(0.015625)"/>
       </defs>
       <use xlink:href="#DejaVuSans-53"/>
       <use xlink:href="#DejaVuSans-70" transform="translate(63.476562 0)"/>
       <use xlink:href="#DejaVuSans-72" transform="translate(126.953125 0)"/>
       <use xlink:href="#DejaVuSans-69" transform="translate(168.066406 0)"/>
       <use xlink:href="#DejaVuSans-6e" transform="translate(195.849609 0)"/>
       <use xlink:href="#DejaVuSans-67" transform="translate(259.228516 0)"/>
       <use xlink:href="#DejaVuSans-76" transform="translate(322.705078 0)"/>
       <use xlink:href="#DejaVuSans-69" transform="translate(381.884766 0)"/>
       <use xlink:href="#DejaVuSans-6c" transform="translate(409.667969 0)"/>
       <use xlink:href="#DejaVuSans-6c" transform="translate(437.451172 0)"/>
       <use xlink:href="#DejaVuSans-65" transform="translate(465.234375 0)"/>
      </g>
     </g>
    </g>
    <g id="ytick_10">
     <g id="line2d_10">
      <g>
       <use xlink:href="#m3723a2e2d6" x="172.8" y="244.686316" style="stroke: #000000; stroke-width: 0.8"/>
      </g>
     </g>
     <g id="text_10">
      <!-- South Salt Lake -->
      <g transform="translate(87.925 248.485535) scale(0.1 -0.1)">
       <defs>
        <path id="DejaVuSans-75" d="M 544 1381 
L 544 3500 
L 1119 3500 
L 1119 1403 
Q 1119 906 1312 657 
Q 1506 409 1894 409 
Q 2359 409 2629 706 
Q 2900 1003 2900 1516 
L 2900 3500 
L 3475 3500 
L 3475 0 
L 2900 0 
L 2900 538 
Q 2691 219 2414 64 
Q 2138 -91 1772 -91 
Q 1169 -91 856 284 
Q 544 659 544 1381 
z
M 1991 3584 
L 1991 3584 
z
" transform="scale(0.015625)"/>
        <path id="DejaVuSans-68" d="M 3513 2113 
L 3513 0 
L 2938 0 
L 2938 2094 
Q 2938 2591 2744 2837 
Q 2550 3084 2163 3084 
Q 1697 3084 1428 2787 
Q 1159 2491 1159 1978 
L 1159 0 
L 581 0 
L 581 4863 
L 1159 4863 
L 1159 2956 
Q 1366 3272 1645 3428 
Q 1925 3584 2291 3584 
Q 2894 3584 3203 3211 
Q 3513 2838 3513 2113 
z
" transform="scale(0.015625)"/>
       </defs>
       <use xlink:href="#DejaVuSans-53"/>
       <use xlink:href="#DejaVuSans-6f" transform="translate(63.476562 0)"/>
       <use xlink:href="#DejaVuSans-75" transform="translate(124.658203 0)"/>
       <use xlink:href="#DejaVuSans-74" transform="translate(188.037109 0)"/>
       <use xlink:href="#DejaVuSans-68" transform="translate(227.246094 0)"/>
       <use xlink:href="#DejaVuSans-20" transform="translate(290.625 0)"/>
       <use xlink:href="#DejaVuSans-53" transform="translate(322.412109 0)"/>
       <use xlink:href="#DejaVuSans-61" transform="translate(385.888672 0)"/>
       <use xlink:href="#DejaVuSans-6c" transform="translate(447.167969 0)"/>
       <use xlink:href="#DejaVuSans-74" transform="translate(474.951172 0)"/>
       <use xlink:href="#DejaVuSans-20" transform="translate(514.160156 0)"/>
       <use xlink:href="#DejaVuSans-4c" transform="translate(545.947266 0)"/>
       <use xlink:href="#DejaVuSans-61" transform="translate(601.660156 0)"/>
       <use xlink:href="#DejaVuSans-6b" transform="translate(662.939453 0)"/>
       <use xlink:href="#DejaVuSans-65" transform="translate(717.224609 0)"/>
      </g>
     </g>
    </g>
    <g id="ytick_11">
     <g id="line2d_11">
      <g>
       <use xlink:href="#m3723a2e2d6" x="172.8" y="231.423158" style="stroke: #000000; stroke-width: 0.8"/>
      </g>
     </g>
     <g id="text_11">
      <!-- Midvale -->
      <g transform="translate(127.067187 235.222377) scale(0.1 -0.1)">
       <use xlink:href="#DejaVuSans-4d"/>
       <use xlink:href="#DejaVuSans-69" transform="translate(86.279297 0)"/>
       <use xlink:href="#DejaVuSans-64" transform="translate(114.0625 0)"/>
       <use xlink:href="#DejaVuSans-76" transform="translate(177.539062 0)"/>
       <use xlink:href="#DejaVuSans-61" transform="translate(236.71875 0)"/>
       <use xlink:href="#DejaVuSans-6c" transform="translate(297.998047 0)"/>
       <use xlink:href="#DejaVuSans-65" transform="translate(325.78125 0)"/>
      </g>
     </g>
    </g>
    <g id="ytick_12">
     <g id="line2d_12">
      <g>
       <use xlink:href="#m3723a2e2d6" x="172.8" y="218.16" style="stroke: #000000; stroke-width: 0.8"/>
      </g>
     </g>
     <g id="text_12">
      <!-- Kearns -->
      <g transform="translate(131.978125 221.959219) scale(0.1 -0.1)">
       <defs>
        <path id="DejaVuSans-4b" d="M 628 4666 
L 1259 4666 
L 1259 2694 
L 3353 4666 
L 4166 4666 
L 1850 2491 
L 4331 0 
L 3500 0 
L 1259 2247 
L 1259 0 
L 628 0 
L 628 4666 
z
" transform="scale(0.015625)"/>
       </defs>
       <use xlink:href="#DejaVuSans-4b"/>
       <use xlink:href="#DejaVuSans-65" transform="translate(60.576172 0)"/>
       <use xlink:href="#DejaVuSans-61" transform="translate(122.099609 0)"/>
       <use xlink:href="#DejaVuSans-72" transform="translate(183.378906 0)"/>
       <use xlink:href="#DejaVuSans-6e" transform="translate(222.742188 0)"/>
       <use xlink:href="#DejaVuSans-73" transform="translate(286.121094 0)"/>
      </g>
     </g>
    </g>
    <g id="ytick_13">
     <g id="line2d_13">
      <g>
       <use xlink:href="#m3723a2e2d6" x="172.8" y="204.896842" style="stroke: #000000; stroke-width: 0.8"/>
      </g>
     </g>
     <g id="text_13">
      <!-- Lehi -->
      <g transform="translate(145.134375 208.696061) scale(0.1 -0.1)">
       <use xlink:href="#DejaVuSans-4c"/>
       <use xlink:href="#DejaVuSans-65" transform="translate(53.962891 0)"/>
       <use xlink:href="#DejaVuSans-68" transform="translate(115.486328 0)"/>
       <use xlink:href="#DejaVuSans-69" transform="translate(178.865234 0)"/>
      </g>
     </g>
    </g>
    <g id="ytick_14">
     <g id="line2d_14">
      <g>
       <use xlink:href="#m3723a2e2d6" x="172.8" y="191.633684" style="stroke: #000000; stroke-width: 0.8"/>
      </g>
     </g>
     <g id="text_14">
      <!-- Murray -->
      <g transform="translate(130.740625 195.432903) scale(0.1 -0.1)">
       <use xlink:href="#DejaVuSans-4d"/>
       <use xlink:href="#DejaVuSans-75" transform="translate(86.279297 0)"/>
       <use xlink:href="#DejaVuSans-72" transform="translate(149.658203 0)"/>
       <use xlink:href="#DejaVuSans-72" transform="translate(189.021484 0)"/>
       <use xlink:href="#DejaVuSans-61" transform="translate(230.134766 0)"/>
       <use xlink:href="#DejaVuSans-79" transform="translate(291.414062 0)"/>
      </g>
     </g>
    </g>
    <g id="ytick_15">
     <g id="line2d_15">
      <g>
       <use xlink:href="#m3723a2e2d6" x="172.8" y="178.370526" style="stroke: #000000; stroke-width: 0.8"/>
      </g>
     </g>
     <g id="text_15">
      <!-- Cottonwood Heights -->
      <g transform="translate(64.192187 182.169745) scale(0.1 -0.1)">
       <defs>
        <path id="DejaVuSans-77" d="M 269 3500 
L 844 3500 
L 1563 769 
L 2278 3500 
L 2956 3500 
L 3675 769 
L 4391 3500 
L 4966 3500 
L 4050 0 
L 3372 0 
L 2619 2869 
L 1863 0 
L 1184 0 
L 269 3500 
z
" transform="scale(0.015625)"/>
        <path id="DejaVuSans-48" d="M 628 4666 
L 1259 4666 
L 1259 2753 
L 3553 2753 
L 3553 4666 
L 4184 4666 
L 4184 0 
L 3553 0 
L 3553 2222 
L 1259 2222 
L 1259 0 
L 628 0 
L 628 4666 
z
" transform="scale(0.015625)"/>
       </defs>
       <use xlink:href="#DejaVuSans-43"/>
       <use xlink:href="#DejaVuSans-6f" transform="translate(69.824219 0)"/>
       <use xlink:href="#DejaVuSans-74" transform="translate(131.005859 0)"/>
       <use xlink:href="#DejaVuSans-74" transform="translate(170.214844 0)"/>
       <use xlink:href="#DejaVuSans-6f" transform="translate(209.423828 0)"/>
       <use xlink:href="#DejaVuSans-6e" transform="translate(270.605469 0)"/>
       <use xlink:href="#DejaVuSans-77" transform="translate(333.984375 0)"/>
       <use xlink:href="#DejaVuSans-6f" transform="translate(415.771484 0)"/>
       <use xlink:href="#DejaVuSans-6f" transform="translate(476.953125 0)"/>
       <use xlink:href="#DejaVuSans-64" transform="translate(538.134766 0)"/>
       <use xlink:href="#DejaVuSans-20" transform="translate(601.611328 0)"/>
       <use xlink:href="#DejaVuSans-48" transform="translate(633.398438 0)"/>
       <use xlink:href="#DejaVuSans-65" transform="translate(708.59375 0)"/>
       <use xlink:href="#DejaVuSans-69" transform="translate(770.117188 0)"/>
       <use xlink:href="#DejaVuSans-67" transform="translate(797.900391 0)"/>
       <use xlink:href="#DejaVuSans-68" transform="translate(861.376953 0)"/>
       <use xlink:href="#DejaVuSans-74" transform="translate(924.755859 0)"/>
       <use xlink:href="#DejaVuSans-73" transform="translate(963.964844 0)"/>
      </g>
     </g>
    </g>
    <g id="ytick_16">
     <g id="line2d_16">
      <g>
       <use xlink:href="#m3723a2e2d6" x="172.8" y="165.107368" style="stroke: #000000; stroke-width: 0.8"/>
      </g>
     </g>
     <g id="text_16">
      <!-- Magna -->
      <g transform="translate(132.229687 168.906587) scale(0.1 -0.1)">
       <use xlink:href="#DejaVuSans-4d"/>
       <use xlink:href="#DejaVuSans-61" transform="translate(86.279297 0)"/>
       <use xlink:href="#DejaVuSans-67" transform="translate(147.558594 0)"/>
       <use xlink:href="#DejaVuSans-6e" transform="translate(211.035156 0)"/>
       <use xlink:href="#DejaVuSans-61" transform="translate(274.414062 0)"/>
      </g>
     </g>
    </g>
    <g id="ytick_17">
     <g id="line2d_17">
      <g>
       <use xlink:href="#m3723a2e2d6" x="172.8" y="151.844211" style="stroke: #000000; stroke-width: 0.8"/>
      </g>
     </g>
     <g id="text_17">
      <!-- Highland -->
      <g transform="translate(121.223437 155.643429) scale(0.1 -0.1)">
       <use xlink:href="#DejaVuSans-48"/>
       <use xlink:href="#DejaVuSans-69" transform="translate(75.195312 0)"/>
       <use xlink:href="#DejaVuSans-67" transform="translate(102.978516 0)"/>
       <use xlink:href="#DejaVuSans-68" transform="translate(166.455078 0)"/>
       <use xlink:href="#DejaVuSans-6c" transform="translate(229.833984 0)"/>
       <use xlink:href="#DejaVuSans-61" transform="translate(257.617188 0)"/>
       <use xlink:href="#DejaVuSans-6e" transform="translate(318.896484 0)"/>
       <use xlink:href="#DejaVuSans-64" transform="translate(382.275391 0)"/>
      </g>
     </g>
    </g>
    <g id="ytick_18">
     <g id="line2d_18">
      <g>
       <use xlink:href="#m3723a2e2d6" x="172.8" y="138.581053" style="stroke: #000000; stroke-width: 0.8"/>
      </g>
     </g>
     <g id="text_18">
      <!-- Glendale -->
      <g transform="translate(121.375 142.380271) scale(0.1 -0.1)">
       <defs>
        <path id="DejaVuSans-47" d="M 3809 666 
L 3809 1919 
L 2778 1919 
L 2778 2438 
L 4434 2438 
L 4434 434 
Q 4069 175 3628 42 
Q 3188 -91 2688 -91 
Q 1594 -91 976 548 
Q 359 1188 359 2328 
Q 359 3472 976 4111 
Q 1594 4750 2688 4750 
Q 3144 4750 3555 4637 
Q 3966 4525 4313 4306 
L 4313 3634 
Q 3963 3931 3569 4081 
Q 3175 4231 2741 4231 
Q 1884 4231 1454 3753 
Q 1025 3275 1025 2328 
Q 1025 1384 1454 906 
Q 1884 428 2741 428 
Q 3075 428 3337 486 
Q 3600 544 3809 666 
z
" transform="scale(0.015625)"/>
       </defs>
       <use xlink:href="#DejaVuSans-47"/>
       <use xlink:href="#DejaVuSans-6c" transform="translate(77.490234 0)"/>
       <use xlink:href="#DejaVuSans-65" transform="translate(105.273438 0)"/>
       <use xlink:href="#DejaVuSans-6e" transform="translate(166.796875 0)"/>
       <use xlink:href="#DejaVuSans-64" transform="translate(230.175781 0)"/>
       <use xlink:href="#DejaVuSans-61" transform="translate(293.652344 0)"/>
       <use xlink:href="#DejaVuSans-6c" transform="translate(354.931641 0)"/>
       <use xlink:href="#DejaVuSans-65" transform="translate(382.714844 0)"/>
      </g>
     </g>
    </g>
    <g id="ytick_19">
     <g id="line2d_19">
      <g>
       <use xlink:href="#m3723a2e2d6" x="172.8" y="125.317895" style="stroke: #000000; stroke-width: 0.8"/>
      </g>
     </g>
     <g id="text_19">
      <!-- Herriman -->
      <g transform="translate(119.095312 129.117113) scale(0.1 -0.1)">
       <use xlink:href="#DejaVuSans-48"/>
       <use xlink:href="#DejaVuSans-65" transform="translate(75.195312 0)"/>
       <use xlink:href="#DejaVuSans-72" transform="translate(136.71875 0)"/>
       <use xlink:href="#DejaVuSans-72" transform="translate(176.082031 0)"/>
       <use xlink:href="#DejaVuSans-69" transform="translate(217.195312 0)"/>
       <use xlink:href="#DejaVuSans-6d" transform="translate(244.978516 0)"/>
       <use xlink:href="#DejaVuSans-61" transform="translate(342.390625 0)"/>
       <use xlink:href="#DejaVuSans-6e" transform="translate(403.669922 0)"/>
      </g>
     </g>
    </g>
    <g id="ytick_20">
     <g id="line2d_20">
      <g>
       <use xlink:href="#m3723a2e2d6" x="172.8" y="112.054737" style="stroke: #000000; stroke-width: 0.8"/>
      </g>
     </g>
     <g id="text_20">
      <!-- Payson -->
      <g transform="translate(130.507812 115.853956) scale(0.1 -0.1)">
       <use xlink:href="#DejaVuSans-50"/>
       <use xlink:href="#DejaVuSans-61" transform="translate(55.802734 0)"/>
       <use xlink:href="#DejaVuSans-79" transform="translate(117.082031 0)"/>
       <use xlink:href="#DejaVuSans-73" transform="translate(176.261719 0)"/>
       <use xlink:href="#DejaVuSans-6f" transform="translate(228.361328 0)"/>
       <use xlink:href="#DejaVuSans-6e" transform="translate(289.542969 0)"/>
      </g>
     </g>
    </g>
    <g id="ytick_21">
     <g id="line2d_21">
      <g>
       <use xlink:href="#m3723a2e2d6" x="172.8" y="98.791579" style="stroke: #000000; stroke-width: 0.8"/>
      </g>
     </g>
     <g id="text_21">
      <!-- South Salt Lak -->
      <g transform="translate(93.715625 102.590798) scale(0.1 -0.1)">
       <use xlink:href="#DejaVuSans-53"/>
       <use xlink:href="#DejaVuSans-6f" transform="translate(63.476562 0)"/>
       <use xlink:href="#DejaVuSans-75" transform="translate(124.658203 0)"/>
       <use xlink:href="#DejaVuSans-74" transform="translate(188.037109 0)"/>
       <use xlink:href="#DejaVuSans-68" transform="translate(227.246094 0)"/>
       <use xlink:href="#DejaVuSans-20" transform="translate(290.625 0)"/>
       <use xlink:href="#DejaVuSans-53" transform="translate(322.412109 0)"/>
       <use xlink:href="#DejaVuSans-61" transform="translate(385.888672 0)"/>
       <use xlink:href="#DejaVuSans-6c" transform="translate(447.167969 0)"/>
       <use xlink:href="#DejaVuSans-74" transform="translate(474.951172 0)"/>
       <use xlink:href="#DejaVuSans-20" transform="translate(514.160156 0)"/>
       <use xlink:href="#DejaVuSans-4c" transform="translate(545.947266 0)"/>
       <use xlink:href="#DejaVuSans-61" transform="translate(601.660156 0)"/>
       <use xlink:href="#DejaVuSans-6b" transform="translate(662.939453 0)"/>
      </g>
     </g>
    </g>
    <g id="ytick_22">
     <g id="line2d_22">
      <g>
       <use xlink:href="#m3723a2e2d6" x="172.8" y="85.528421" style="stroke: #000000; stroke-width: 0.8"/>
      </g>
     </g>
     <g id="text_22">
      <!-- Spanish Fork -->
      <g transform="translate(101.725 89.32764) scale(0.1 -0.1)">
       <defs>
        <path id="DejaVuSans-46" d="M 628 4666 
L 3309 4666 
L 3309 4134 
L 1259 4134 
L 1259 2759 
L 3109 2759 
L 3109 2228 
L 1259 2228 
L 1259 0 
L 628 0 
L 628 4666 
z
" transform="scale(0.015625)"/>
       </defs>
       <use xlink:href="#DejaVuSans-53"/>
       <use xlink:href="#DejaVuSans-70" transform="translate(63.476562 0)"/>
       <use xlink:href="#DejaVuSans-61" transform="translate(126.953125 0)"/>
       <use xlink:href="#DejaVuSans-6e" transform="translate(188.232422 0)"/>
       <use xlink:href="#DejaVuSans-69" transform="translate(251.611328 0)"/>
       <use xlink:href="#DejaVuSans-73" transform="translate(279.394531 0)"/>
       <use xlink:href="#DejaVuSans-68" transform="translate(331.494141 0)"/>
       <use xlink:href="#DejaVuSans-20" transform="translate(394.873047 0)"/>
       <use xlink:href="#DejaVuSans-46" transform="translate(426.660156 0)"/>
       <use xlink:href="#DejaVuSans-6f" transform="translate(480.554688 0)"/>
       <use xlink:href="#DejaVuSans-72" transform="translate(541.736328 0)"/>
       <use xlink:href="#DejaVuSans-6b" transform="translate(582.849609 0)"/>
      </g>
     </g>
    </g>
    <g id="ytick_23">
     <g id="line2d_23">
      <g>
       <use xlink:href="#m3723a2e2d6" x="172.8" y="72.265263" style="stroke: #000000; stroke-width: 0.8"/>
      </g>
     </g>
     <g id="text_23">
      <!-- Syracuse -->
      <g transform="translate(120.095312 76.064482) scale(0.1 -0.1)">
       <use xlink:href="#DejaVuSans-53"/>
       <use xlink:href="#DejaVuSans-79" transform="translate(63.476562 0)"/>
       <use xlink:href="#DejaVuSans-72" transform="translate(122.65625 0)"/>
       <use xlink:href="#DejaVuSans-61" transform="translate(163.769531 0)"/>
       <use xlink:href="#DejaVuSans-63" transform="translate(225.048828 0)"/>
       <use xlink:href="#DejaVuSans-75" transform="translate(280.029297 0)"/>
       <use xlink:href="#DejaVuSans-73" transform="translate(343.408203 0)"/>
       <use xlink:href="#DejaVuSans-65" transform="translate(395.507812 0)"/>
      </g>
     </g>
    </g>
   </g>
   <g id="patch_26">
    <path d="M 172.8 384.48 
L 172.8 51.84 
" style="fill: none; stroke: #000000; stroke-width: 0.8; stroke-linejoin: miter; stroke-linecap: square"/>
   </g>
   <g id="text_24">
    <!-- 21 people -->
    <g transform="translate(502.726531 368.033684) scale(0.1 -0.1)">
     <defs>
      <path id="DejaVuSans-32" d="M 1228 531 
L 3431 531 
L 3431 0 
L 469 0 
L 469 531 
Q 828 903 1448 1529 
Q 2069 2156 2228 2338 
Q 2531 2678 2651 2914 
Q 2772 3150 2772 3378 
Q 2772 3750 2511 3984 
Q 2250 4219 1831 4219 
Q 1534 4219 1204 4116 
Q 875 4013 500 3803 
L 500 4441 
Q 881 4594 1212 4672 
Q 1544 4750 1819 4750 
Q 2544 4750 2975 4387 
Q 3406 4025 3406 3419 
Q 3406 3131 3298 2873 
Q 3191 2616 2906 2266 
Q 2828 2175 2409 1742 
Q 1991 1309 1228 531 
z
" transform="scale(0.015625)"/>
      <path id="DejaVuSans-31" d="M 794 531 
L 1825 531 
L 1825 4091 
L 703 3866 
L 703 4441 
L 1819 4666 
L 2450 4666 
L 2450 531 
L 3481 531 
L 3481 0 
L 794 0 
L 794 531 
z
" transform="scale(0.015625)"/>
     </defs>
     <use xlink:href="#DejaVuSans-32"/>
     <use xlink:href="#DejaVuSans-31" transform="translate(63.623047 0)"/>
     <use xlink:href="#DejaVuSans-20" transform="translate(127.246094 0)"/>
     <use xlink:href="#DejaVuSans-70" transform="translate(159.033203 0)"/>
     <use xlink:href="#DejaVuSans-65" transform="translate(222.509766 0)"/>
     <use xlink:href="#DejaVuSans-6f" transform="translate(284.033203 0)"/>
     <use xlink:href="#DejaVuSans-70" transform="translate(345.214844 0)"/>
     <use xlink:href="#DejaVuSans-6c" transform="translate(408.691406 0)"/>
     <use xlink:href="#DejaVuSans-65" transform="translate(436.474609 0)"/>
    </g>
   </g>
   <g id="text_25">
    <!-- 13 people -->
    <g transform="translate(377.338776 354.770526) scale(0.1 -0.1)">
     <defs>
      <path id="DejaVuSans-33" d="M 2597 2516 
Q 3050 2419 3304 2112 
Q 3559 1806 3559 1356 
Q 3559 666 3084 287 
Q 2609 -91 1734 -91 
Q 1441 -91 1130 -33 
Q 819 25 488 141 
L 488 750 
Q 750 597 1062 519 
Q 1375 441 1716 441 
Q 2309 441 2620 675 
Q 2931 909 2931 1356 
Q 2931 1769 2642 2001 
Q 2353 2234 1838 2234 
L 1294 2234 
L 1294 2753 
L 1863 2753 
Q 2328 2753 2575 2939 
Q 2822 3125 2822 3475 
Q 2822 3834 2567 4026 
Q 2313 4219 1838 4219 
Q 1578 4219 1281 4162 
Q 984 4106 628 3988 
L 628 4550 
Q 988 4650 1302 4700 
Q 1616 4750 1894 4750 
Q 2613 4750 3031 4423 
Q 3450 4097 3450 3541 
Q 3450 3153 3228 2886 
Q 3006 2619 2597 2516 
z
" transform="scale(0.015625)"/>
     </defs>
     <use xlink:href="#DejaVuSans-31"/>
     <use xlink:href="#DejaVuSans-33" transform="translate(63.623047 0)"/>
     <use xlink:href="#DejaVuSans-20" transform="translate(127.246094 0)"/>
     <use xlink:href="#DejaVuSans-70" transform="translate(159.033203 0)"/>
     <use xlink:href="#DejaVuSans-65" transform="translate(222.509766 0)"/>
     <use xlink:href="#DejaVuSans-6f" transform="translate(284.033203 0)"/>
     <use xlink:href="#DejaVuSans-70" transform="translate(345.214844 0)"/>
     <use xlink:href="#DejaVuSans-6c" transform="translate(408.691406 0)"/>
     <use xlink:href="#DejaVuSans-65" transform="translate(436.474609 0)"/>
    </g>
   </g>
   <g id="text_26">
    <!-- 9 people -->
    <g transform="translate(314.644898 341.507368) scale(0.1 -0.1)">
     <defs>
      <path id="DejaVuSans-39" d="M 703 97 
L 703 672 
Q 941 559 1184 500 
Q 1428 441 1663 441 
Q 2288 441 2617 861 
Q 2947 1281 2994 2138 
Q 2813 1869 2534 1725 
Q 2256 1581 1919 1581 
Q 1219 1581 811 2004 
Q 403 2428 403 3163 
Q 403 3881 828 4315 
Q 1253 4750 1959 4750 
Q 2769 4750 3195 4129 
Q 3622 3509 3622 2328 
Q 3622 1225 3098 567 
Q 2575 -91 1691 -91 
Q 1453 -91 1209 -44 
Q 966 3 703 97 
z
M 1959 2075 
Q 2384 2075 2632 2365 
Q 2881 2656 2881 3163 
Q 2881 3666 2632 3958 
Q 2384 4250 1959 4250 
Q 1534 4250 1286 3958 
Q 1038 3666 1038 3163 
Q 1038 2656 1286 2365 
Q 1534 2075 1959 2075 
z
" transform="scale(0.015625)"/>
     </defs>
     <use xlink:href="#DejaVuSans-39"/>
     <use xlink:href="#DejaVuSans-20" transform="translate(63.623047 0)"/>
     <use xlink:href="#DejaVuSans-70" transform="translate(95.410156 0)"/>
     <use xlink:href="#DejaVuSans-65" transform="translate(158.886719 0)"/>
     <use xlink:href="#DejaVuSans-6f" transform="translate(220.410156 0)"/>
     <use xlink:href="#DejaVuSans-70" transform="translate(281.591797 0)"/>
     <use xlink:href="#DejaVuSans-6c" transform="translate(345.068359 0)"/>
     <use xlink:href="#DejaVuSans-65" transform="translate(372.851562 0)"/>
    </g>
   </g>
   <g id="text_27">
    <!-- 8 people -->
    <g transform="translate(298.971429 328.244211) scale(0.1 -0.1)">
     <defs>
      <path id="DejaVuSans-38" d="M 2034 2216 
Q 1584 2216 1326 1975 
Q 1069 1734 1069 1313 
Q 1069 891 1326 650 
Q 1584 409 2034 409 
Q 2484 409 2743 651 
Q 3003 894 3003 1313 
Q 3003 1734 2745 1975 
Q 2488 2216 2034 2216 
z
M 1403 2484 
Q 997 2584 770 2862 
Q 544 3141 544 3541 
Q 544 4100 942 4425 
Q 1341 4750 2034 4750 
Q 2731 4750 3128 4425 
Q 3525 4100 3525 3541 
Q 3525 3141 3298 2862 
Q 3072 2584 2669 2484 
Q 3125 2378 3379 2068 
Q 3634 1759 3634 1313 
Q 3634 634 3220 271 
Q 2806 -91 2034 -91 
Q 1263 -91 848 271 
Q 434 634 434 1313 
Q 434 1759 690 2068 
Q 947 2378 1403 2484 
z
M 1172 3481 
Q 1172 3119 1398 2916 
Q 1625 2713 2034 2713 
Q 2441 2713 2670 2916 
Q 2900 3119 2900 3481 
Q 2900 3844 2670 4047 
Q 2441 4250 2034 4250 
Q 1625 4250 1398 4047 
Q 1172 3844 1172 3481 
z
" transform="scale(0.015625)"/>
     </defs>
     <use xlink:href="#DejaVuSans-38"/>
     <use xlink:href="#DejaVuSans-20" transform="translate(63.623047 0)"/>
     <use xlink:href="#DejaVuSans-70" transform="translate(95.410156 0)"/>
     <use xlink:href="#DejaVuSans-65" transform="translate(158.886719 0)"/>
     <use xlink:href="#DejaVuSans-6f" transform="translate(220.410156 0)"/>
     <use xlink:href="#DejaVuSans-70" transform="translate(281.591797 0)"/>
     <use xlink:href="#DejaVuSans-6c" transform="translate(345.068359 0)"/>
     <use xlink:href="#DejaVuSans-65" transform="translate(372.851562 0)"/>
    </g>
   </g>
   <g id="text_28">
    <!-- 4 people -->
    <g transform="translate(236.277551 314.981053) scale(0.1 -0.1)">
     <defs>
      <path id="DejaVuSans-34" d="M 2419 4116 
L 825 1625 
L 2419 1625 
L 2419 4116 
z
M 2253 4666 
L 3047 4666 
L 3047 1625 
L 3713 1625 
L 3713 1100 
L 3047 1100 
L 3047 0 
L 2419 0 
L 2419 1100 
L 313 1100 
L 313 1709 
L 2253 4666 
z
" transform="scale(0.015625)"/>
     </defs>
     <use xlink:href="#DejaVuSans-34"/>
     <use xlink:href="#DejaVuSans-20" transform="translate(63.623047 0)"/>
     <use xlink:href="#DejaVuSans-70" transform="translate(95.410156 0)"/>
     <use xlink:href="#DejaVuSans-65" transform="translate(158.886719 0)"/>
     <use xlink:href="#DejaVuSans-6f" transform="translate(220.410156 0)"/>
     <use xlink:href="#DejaVuSans-70" transform="translate(281.591797 0)"/>
     <use xlink:href="#DejaVuSans-6c" transform="translate(345.068359 0)"/>
     <use xlink:href="#DejaVuSans-65" transform="translate(372.851562 0)"/>
    </g>
   </g>
   <g id="text_29">
    <!-- 4 people -->
    <g transform="translate(236.277551 301.717895) scale(0.1 -0.1)">
     <use xlink:href="#DejaVuSans-34"/>
     <use xlink:href="#DejaVuSans-20" transform="translate(63.623047 0)"/>
     <use xlink:href="#DejaVuSans-70" transform="translate(95.410156 0)"/>
     <use xlink:href="#DejaVuSans-65" transform="translate(158.886719 0)"/>
     <use xlink:href="#DejaVuSans-6f" transform="translate(220.410156 0)"/>
     <use xlink:href="#DejaVuSans-70" transform="translate(281.591797 0)"/>
     <use xlink:href="#DejaVuSans-6c" transform="translate(345.068359 0)"/>
     <use xlink:href="#DejaVuSans-65" transform="translate(372.851562 0)"/>
    </g>
   </g>
   <g id="text_30">
    <!-- 3 people -->
    <g transform="translate(220.604082 288.454737) scale(0.1 -0.1)">
     <use xlink:href="#DejaVuSans-33"/>
     <use xlink:href="#DejaVuSans-20" transform="translate(63.623047 0)"/>
     <use xlink:href="#DejaVuSans-70" transform="translate(95.410156 0)"/>
     <use xlink:href="#DejaVuSans-65" transform="translate(158.886719 0)"/>
     <use xlink:href="#DejaVuSans-6f" transform="translate(220.410156 0)"/>
     <use xlink:href="#DejaVuSans-70" transform="translate(281.591797 0)"/>
     <use xlink:href="#DejaVuSans-6c" transform="translate(345.068359 0)"/>
     <use xlink:href="#DejaVuSans-65" transform="translate(372.851562 0)"/>
    </g>
   </g>
   <g id="text_31">
    <!-- 3 people -->
    <g transform="translate(220.604082 275.191579) scale(0.1 -0.1)">
     <use xlink:href="#DejaVuSans-33"/>
     <use xlink:href="#DejaVuSans-20" transform="translate(63.623047 0)"/>
     <use xlink:href="#DejaVuSans-70" transform="translate(95.410156 0)"/>
     <use xlink:href="#DejaVuSans-65" transform="translate(158.886719 0)"/>
     <use xlink:href="#DejaVuSans-6f" transform="translate(220.410156 0)"/>
     <use xlink:href="#DejaVuSans-70" transform="translate(281.591797 0)"/>
     <use xlink:href="#DejaVuSans-6c" transform="translate(345.068359 0)"/>
     <use xlink:href="#DejaVuSans-65" transform="translate(372.851562 0)"/>
    </g>
   </g>
   <g id="text_32">
    <!-- 3 people -->
    <g transform="translate(220.604082 261.928421) scale(0.1 -0.1)">
     <use xlink:href="#DejaVuSans-33"/>
     <use xlink:href="#DejaVuSans-20" transform="translate(63.623047 0)"/>
     <use xlink:href="#DejaVuSans-70" transform="translate(95.410156 0)"/>
     <use xlink:href="#DejaVuSans-65" transform="translate(158.886719 0)"/>
     <use xlink:href="#DejaVuSans-6f" transform="translate(220.410156 0)"/>
     <use xlink:href="#DejaVuSans-70" transform="translate(281.591797 0)"/>
     <use xlink:href="#DejaVuSans-6c" transform="translate(345.068359 0)"/>
     <use xlink:href="#DejaVuSans-65" transform="translate(372.851562 0)"/>
    </g>
   </g>
   <g id="text_33">
    <!-- 3 people -->
    <g transform="translate(220.604082 248.665263) scale(0.1 -0.1)">
     <use xlink:href="#DejaVuSans-33"/>
     <use xlink:href="#DejaVuSans-20" transform="translate(63.623047 0)"/>
     <use xlink:href="#DejaVuSans-70" transform="translate(95.410156 0)"/>
     <use xlink:href="#DejaVuSans-65" transform="translate(158.886719 0)"/>
     <use xlink:href="#DejaVuSans-6f" transform="translate(220.410156 0)"/>
     <use xlink:href="#DejaVuSans-70" transform="translate(281.591797 0)"/>
     <use xlink:href="#DejaVuSans-6c" transform="translate(345.068359 0)"/>
     <use xlink:href="#DejaVuSans-65" transform="translate(372.851562 0)"/>
    </g>
   </g>
   <g id="text_34">
    <!-- 2 people -->
    <g transform="translate(204.930612 235.402105) scale(0.1 -0.1)">
     <use xlink:href="#DejaVuSans-32"/>
     <use xlink:href="#DejaVuSans-20" transform="translate(63.623047 0)"/>
     <use xlink:href="#DejaVuSans-70" transform="translate(95.410156 0)"/>
     <use xlink:href="#DejaVuSans-65" transform="translate(158.886719 0)"/>
     <use xlink:href="#DejaVuSans-6f" transform="translate(220.410156 0)"/>
     <use xlink:href="#DejaVuSans-70" transform="translate(281.591797 0)"/>
     <use xlink:href="#DejaVuSans-6c" transform="translate(345.068359 0)"/>
     <use xlink:href="#DejaVuSans-65" transform="translate(372.851562 0)"/>
    </g>
   </g>
   <g id="text_35">
    <!-- 2 people -->
    <g transform="translate(204.930612 222.138947) scale(0.1 -0.1)">
     <use xlink:href="#DejaVuSans-32"/>
     <use xlink:href="#DejaVuSans-20" transform="translate(63.623047 0)"/>
     <use xlink:href="#DejaVuSans-70" transform="translate(95.410156 0)"/>
     <use xlink:href="#DejaVuSans-65" transform="translate(158.886719 0)"/>
     <use xlink:href="#DejaVuSans-6f" transform="translate(220.410156 0)"/>
     <use xlink:href="#DejaVuSans-70" transform="translate(281.591797 0)"/>
     <use xlink:href="#DejaVuSans-6c" transform="translate(345.068359 0)"/>
     <use xlink:href="#DejaVuSans-65" transform="translate(372.851562 0)"/>
    </g>
   </g>
   <g id="text_36">
    <!-- 2 people -->
    <g transform="translate(204.930612 208.875789) scale(0.1 -0.1)">
     <use xlink:href="#DejaVuSans-32"/>
     <use xlink:href="#DejaVuSans-20" transform="translate(63.623047 0)"/>
     <use xlink:href="#DejaVuSans-70" transform="translate(95.410156 0)"/>
     <use xlink:href="#DejaVuSans-65" transform="translate(158.886719 0)"/>
     <use xlink:href="#DejaVuSans-6f" transform="translate(220.410156 0)"/>
     <use xlink:href="#DejaVuSans-70" transform="translate(281.591797 0)"/>
     <use xlink:href="#DejaVuSans-6c" transform="translate(345.068359 0)"/>
     <use xlink:href="#DejaVuSans-65" transform="translate(372.851562 0)"/>
    </g>
   </g>
   <g id="text_37">
    <!-- 2 people -->
    <g transform="translate(204.930612 195.612632) scale(0.1 -0.1)">
     <use xlink:href="#DejaVuSans-32"/>
     <use xlink:href="#DejaVuSans-20" transform="translate(63.623047 0)"/>
     <use xlink:href="#DejaVuSans-70" transform="translate(95.410156 0)"/>
     <use xlink:href="#DejaVuSans-65" transform="translate(158.886719 0)"/>
     <use xlink:href="#DejaVuSans-6f" transform="translate(220.410156 0)"/>
     <use xlink:href="#DejaVuSans-70" transform="translate(281.591797 0)"/>
     <use xlink:href="#DejaVuSans-6c" transform="translate(345.068359 0)"/>
     <use xlink:href="#DejaVuSans-65" transform="translate(372.851562 0)"/>
    </g>
   </g>
   <g id="text_38">
    <!-- 1 person -->
    <g transform="translate(189.257143 182.349474) scale(0.1 -0.1)">
     <use xlink:href="#DejaVuSans-31"/>
     <use xlink:href="#DejaVuSans-20" transform="translate(63.623047 0)"/>
     <use xlink:href="#DejaVuSans-70" transform="translate(95.410156 0)"/>
     <use xlink:href="#DejaVuSans-65" transform="translate(158.886719 0)"/>
     <use xlink:href="#DejaVuSans-72" transform="translate(220.410156 0)"/>
     <use xlink:href="#DejaVuSans-73" transform="translate(261.523438 0)"/>
     <use xlink:href="#DejaVuSans-6f" transform="translate(313.623047 0)"/>
     <use xlink:href="#DejaVuSans-6e" transform="translate(374.804688 0)"/>
    </g>
   </g>
   <g id="text_39">
    <!-- 1 person -->
    <g transform="translate(189.257143 169.086316) scale(0.1 -0.1)">
     <use xlink:href="#DejaVuSans-31"/>
     <use xlink:href="#DejaVuSans-20" transform="translate(63.623047 0)"/>
     <use xlink:href="#DejaVuSans-70" transform="translate(95.410156 0)"/>
     <use xlink:href="#DejaVuSans-65" transform="translate(158.886719 0)"/>
     <use xlink:href="#DejaVuSans-72" transform="translate(220.410156 0)"/>
     <use xlink:href="#DejaVuSans-73" transform="translate(261.523438 0)"/>
     <use xlink:href="#DejaVuSans-6f" transform="translate(313.623047 0)"/>
     <use xlink:href="#DejaVuSans-6e" transform="translate(374.804688 0)"/>
    </g>
   </g>
   <g id="text_40">
    <!-- 1 person -->
    <g transform="translate(189.257143 155.823158) scale(0.1 -0.1)">
     <use xlink:href="#DejaVuSans-31"/>
     <use xlink:href="#DejaVuSans-20" transform="translate(63.623047 0)"/>
     <use xlink:href="#DejaVuSans-70" transform="translate(95.410156 0)"/>
     <use xlink:href="#DejaVuSans-65" transform="translate(158.886719 0)"/>
     <use xlink:href="#DejaVuSans-72" transform="translate(220.410156 0)"/>
     <use xlink:href="#DejaVuSans-73" transform="translate(261.523438 0)"/>
     <use xlink:href="#DejaVuSans-6f" transform="translate(313.623047 0)"/>
     <use xlink:href="#DejaVuSans-6e" transform="translate(374.804688 0)"/>
    </g>
   </g>
   <g id="text_41">
    <!-- 1 person -->
    <g transform="translate(189.257143 142.56) scale(0.1 -0.1)">
     <use xlink:href="#DejaVuSans-31"/>
     <use xlink:href="#DejaVuSans-20" transform="translate(63.623047 0)"/>
     <use xlink:href="#DejaVuSans-70" transform="translate(95.410156 0)"/>
     <use xlink:href="#DejaVuSans-65" transform="translate(158.886719 0)"/>
     <use xlink:href="#DejaVuSans-72" transform="translate(220.410156 0)"/>
     <use xlink:href="#DejaVuSans-73" transform="translate(261.523438 0)"/>
     <use xlink:href="#DejaVuSans-6f" transform="translate(313.623047 0)"/>
     <use xlink:href="#DejaVuSans-6e" transform="translate(374.804688 0)"/>
    </g>
   </g>
   <g id="text_42">
    <!-- 1 person -->
    <g transform="translate(189.257143 129.296842) scale(0.1 -0.1)">
     <use xlink:href="#DejaVuSans-31"/>
     <use xlink:href="#DejaVuSans-20" transform="translate(63.623047 0)"/>
     <use xlink:href="#DejaVuSans-70" transform="translate(95.410156 0)"/>
     <use xlink:href="#DejaVuSans-65" transform="translate(158.886719 0)"/>
     <use xlink:href="#DejaVuSans-72" transform="translate(220.410156 0)"/>
     <use xlink:href="#DejaVuSans-73" transform="translate(261.523438 0)"/>
     <use xlink:href="#DejaVuSans-6f" transform="translate(313.623047 0)"/>
     <use xlink:href="#DejaVuSans-6e" transform="translate(374.804688 0)"/>
    </g>
   </g>
   <g id="text_43">
    <!-- 1 person -->
    <g transform="translate(189.257143 116.033684) scale(0.1 -0.1)">
     <use xlink:href="#DejaVuSans-31"/>
     <use xlink:href="#DejaVuSans-20" transform="translate(63.623047 0)"/>
     <use xlink:href="#DejaVuSans-70" transform="translate(95.410156 0)"/>
     <use xlink:href="#DejaVuSans-65" transform="translate(158.886719 0)"/>
     <use xlink:href="#DejaVuSans-72" transform="translate(220.410156 0)"/>
     <use xlink:href="#DejaVuSans-73" transform="translate(261.523438 0)"/>
     <use xlink:href="#DejaVuSans-6f" transform="translate(313.623047 0)"/>
     <use xlink:href="#DejaVuSans-6e" transform="translate(374.804688 0)"/>
    </g>
   </g>
   <g id="text_44">
    <!-- 1 person -->
    <g transform="translate(189.257143 102.770526) scale(0.1 -0.1)">
     <use xlink:href="#DejaVuSans-31"/>
     <use xlink:href="#DejaVuSans-20" transform="translate(63.623047 0)"/>
     <use xlink:href="#DejaVuSans-70" transform="translate(95.410156 0)"/>
     <use xlink:href="#DejaVuSans-65" transform="translate(158.886719 0)"/>
     <use xlink:href="#DejaVuSans-72" transform="translate(220.410156 0)"/>
     <use xlink:href="#DejaVuSans-73" transform="translate(261.523438 0)"/>
     <use xlink:href="#DejaVuSans-6f" transform="translate(313.623047 0)"/>
     <use xlink:href="#DejaVuSans-6e" transform="translate(374.804688 0)"/>
    </g>
   </g>
   <g id="text_45">
    <!-- 1 person -->
    <g transform="translate(189.257143 89.507368) scale(0.1 -0.1)">
     <use xlink:href="#DejaVuSans-31"/>
     <use xlink:href="#DejaVuSans-20" transform="translate(63.623047 0)"/>
     <use xlink:href="#DejaVuSans-70" transform="translate(95.410156 0)"/>
     <use xlink:href="#DejaVuSans-65" transform="translate(158.886719 0)"/>
     <use xlink:href="#DejaVuSans-72" transform="translate(220.410156 0)"/>
     <use xlink:href="#DejaVuSans-73" transform="translate(261.523438 0)"/>
     <use xlink:href="#DejaVuSans-6f" transform="translate(313.623047 0)"/>
     <use xlink:href="#DejaVuSans-6e" transform="translate(374.804688 0)"/>
    </g>
   </g>
   <g id="text_46">
    <!-- 1 person -->
    <g transform="translate(189.257143 76.244211) scale(0.1 -0.1)">
     <use xlink:href="#DejaVuSans-31"/>
     <use xlink:href="#DejaVuSans-20" transform="translate(63.623047 0)"/>
     <use xlink:href="#DejaVuSans-70" transform="translate(95.410156 0)"/>
     <use xlink:href="#DejaVuSans-65" transform="translate(158.886719 0)"/>
     <use xlink:href="#DejaVuSans-72" transform="translate(220.410156 0)"/>
     <use xlink:href="#DejaVuSans-73" transform="translate(261.523438 0)"/>
     <use xlink:href="#DejaVuSans-6f" transform="translate(313.623047 0)"/>
     <use xlink:href="#DejaVuSans-6e" transform="translate(374.804688 0)"/>
    </g>
   </g>
  </g>
 </g>
 <defs>
  <clipPath id="p715f99fac0">
   <rect x="172.8" y="51.84" width="345.6" height="332.64"/>
  </clipPath>
 </defs>
</svg>
